<?xml version="1.0" encoding="UTF-8"?>
<svg width="32" height="32" viewBox="0 0 32 32" fill="none" xmlns="http://www.w3.org/2000/svg">
  <path d="M24 14H8C6.89543 14 6 14.8954 6 16V16C6 17.1046 6.89543 18 8 18H24C25.1046 18 26 17.1046 26 16V16C26 14.8954 25.1046 14 24 14Z" fill="#4299E1"/>
  <path d="M8 14V10C8 8.89543 8.89543 8 10 8H12C13.1046 8 14 8.89543 14 10V14H8Z" fill="#4299E1"/>
  <path d="M18 14V10C18 8.89543 18.8954 8 20 8H22C23.1046 8 24 8.89543 24 10V14H18Z" fill="#4299E1"/>
  <path d="M8 18V22C8 23.1046 8.89543 24 10 24H12C13.1046 24 14 23.1046 14 22V18H8Z" fill="#4299E1"/>
  <path d="M18 18V22C18 23.1046 18.8954 24 20 24H22C23.1046 24 24 23.1046 24 22V18H18Z" fill="#4299E1"/>
</svg> 